<svg xmlns="http://www.w3.org/2000/svg" viewBox="0 0 200 80" width="200" height="80">
  <rect width="200" height="80" fill="#f1f5f9" rx="4"/>
  <rect x="8" y="20" width="42" height="40" rx="4" fill="#fff" stroke="#e2e8f0" stroke-width="1"/>
  <rect x="56" y="20" width="42" height="40" rx="4" fill="#fff" stroke="#e2e8f0" stroke-width="1"/>
  <rect x="104" y="20" width="42" height="40" rx="4" fill="#fff" stroke="#e2e8f0" stroke-width="1"/>
  <rect x="152" y="20" width="42" height="40" rx="4" fill="#fff" stroke="#e2e8f0" stroke-width="1"/>
  <rect x="16" y="29" width="26" height="9" rx="3" fill="#2563eb" opacity=".6"/>
  <rect x="20" y="42" width="18" height="5" rx="2" fill="#94a3b8" opacity=".7"/>
  <rect x="64" y="29" width="26" height="9" rx="3" fill="#0d9488" opacity=".6"/>
  <rect x="68" y="42" width="18" height="5" rx="2" fill="#94a3b8" opacity=".7"/>
  <rect x="112" y="29" width="26" height="9" rx="3" fill="#2563eb" opacity=".6"/>
  <rect x="116" y="42" width="18" height="5" rx="2" fill="#94a3b8" opacity=".7"/>
  <rect x="160" y="29" width="26" height="9" rx="3" fill="#0d9488" opacity=".6"/>
  <rect x="164" y="42" width="18" height="5" rx="2" fill="#94a3b8" opacity=".7"/>
</svg>
