<svg xmlns="http://www.w3.org/2000/svg" viewBox="0 0 200 120" width="200" height="120">
  <rect width="200" height="120" fill="#f8fafc" rx="4"/>
  <rect x="8" y="8" width="88" height="48" rx="6" fill="#eff6ff" stroke="#bfdbfe" stroke-width="1"/>
  <rect x="104" y="8" width="88" height="48" rx="6" fill="#eff6ff" stroke="#bfdbfe" stroke-width="1"/>
  <rect x="8" y="64" width="88" height="48" rx="6" fill="#eff6ff" stroke="#bfdbfe" stroke-width="1"/>
  <rect x="104" y="64" width="88" height="48" rx="6" fill="#eff6ff" stroke="#bfdbfe" stroke-width="1"/>
  <circle cx="26" cy="24" r="6" fill="#2563eb" opacity=".6"/>
  <rect x="36" y="20" width="40" height="4" rx="2" fill="#1e293b" opacity=".5"/>
  <rect x="36" y="28" width="30" height="3" rx="1.5" fill="#64748b" opacity=".4"/>
  <circle cx="122" cy="24" r="6" fill="#0d9488" opacity=".6"/>
  <rect x="132" y="20" width="40" height="4" rx="2" fill="#1e293b" opacity=".5"/>
  <rect x="132" y="28" width="30" height="3" rx="1.5" fill="#64748b" opacity=".4"/>
  <circle cx="26" cy="80" r="6" fill="#2563eb" opacity=".6"/>
  <rect x="36" y="76" width="40" height="4" rx="2" fill="#1e293b" opacity=".5"/>
  <rect x="36" y="84" width="30" height="3" rx="1.5" fill="#64748b" opacity=".4"/>
  <circle cx="122" cy="80" r="6" fill="#0d9488" opacity=".6"/>
  <rect x="132" y="76" width="40" height="4" rx="2" fill="#1e293b" opacity=".5"/>
  <rect x="132" y="84" width="30" height="3" rx="1.5" fill="#64748b" opacity=".4"/>
</svg>
